<svg width="35" height="27" viewBox="0 0 35 27" fill="none" xmlns="http://www.w3.org/2000/svg">
<path d="M34.2083 3.375V23.625C34.2083 24.5531 33.8779 25.3477 33.2169 26.0086C32.556 26.6695 31.7615 27 30.8333 27H3.83334C2.90522 27 2.11069 26.6695 1.44975 26.0086C0.788812 25.3477 0.458344 24.5531 0.458344 23.625V3.375C0.458344 2.44687 0.788812 1.65234 1.44975 0.991406C2.11069 0.330469 2.90522 0 3.83334 0H30.8333C31.7615 0 32.556 0.330469 33.2169 0.991406C33.8779 1.65234 34.2083 2.44687 34.2083 3.375ZM3.83334 6.75H30.8333V3.375H3.83334V6.75ZM3.83334 13.5V23.625H30.8333V13.5H3.83334Z" fill="white"/>
</svg>
