<svg width="24" height="24" viewBox="0 0 24 24" fill="none" xmlns="http://www.w3.org/2000/svg">
<mask id="mask0_68_418" style="mask-type:alpha" maskUnits="userSpaceOnUse" x="0" y="0" width="24" height="24">
<rect y="0.0639038" width="24" height="23.8722" fill="#D9D9D9"/>
</mask>
<g mask="url(#mask0_68_418)">
<path d="M12 15.9787C13.25 15.9787 14.3125 15.5435 15.1875 14.6732C16.0625 13.8029 16.5 12.746 16.5 11.5027C16.5 10.2593 16.0625 9.20248 15.1875 8.33214C14.3125 7.4618 13.25 7.02663 12 7.02663C10.75 7.02663 9.6875 7.4618 8.8125 8.33214C7.9375 9.20248 7.5 10.2593 7.5 11.5027C7.5 12.746 7.9375 13.8029 8.8125 14.6732C9.6875 15.5435 10.75 15.9787 12 15.9787ZM12 14.1883C11.25 14.1883 10.6125 13.9272 10.0875 13.405C9.5625 12.8828 9.3 12.2487 9.3 11.5027C9.3 10.7567 9.5625 10.1226 10.0875 9.60035C10.6125 9.07815 11.25 8.81704 12 8.81704C12.75 8.81704 13.3875 9.07815 13.9125 9.60035C14.4375 10.1226 14.7 10.7567 14.7 11.5027C14.7 12.2487 14.4375 12.8828 13.9125 13.405C13.3875 13.9272 12.75 14.1883 12 14.1883ZM12 18.9627C9.56667 18.9627 7.35 18.2872 5.35 16.9361C3.35 15.585 1.9 13.7738 1 11.5027C1.9 9.23149 3.35 7.42035 5.35 6.06925C7.35 4.71815 9.56667 4.0426 12 4.0426C14.4333 4.0426 16.65 4.71815 18.65 6.06925C20.65 7.42035 22.1 9.23149 23 11.5027C22.1 13.7738 20.65 15.585 18.65 16.9361C16.65 18.2872 14.4333 18.9627 12 18.9627ZM12 16.9734C13.8833 16.9734 15.6125 16.4802 17.1875 15.4938C18.7625 14.5074 19.9667 13.177 20.8 11.5027C19.9667 9.8283 18.7625 8.49792 17.1875 7.51153C15.6125 6.52515 13.8833 6.03195 12 6.03195C10.1167 6.03195 8.3875 6.52515 6.8125 7.51153C5.2375 8.49792 4.03333 9.8283 3.2 11.5027C4.03333 13.177 5.2375 14.5074 6.8125 15.4938C8.3875 16.4802 10.1167 16.9734 12 16.9734Z" fill="#1C1B1F"/>
</g>
</svg>
